<svg width="24" height="24" viewBox="0 0 24 24" fill="none" xmlns="http://www.w3.org/2000/svg">
<path d="M4 17V7C4 6.20435 4.3163 5.44152 4.87891 4.87891C5.44152 4.3163 6.20435 4 7 4H13C13.5523 4 14 4.44772 14 5C14 5.55228 13.5523 6 13 6H7C6.73478 6 6.4805 6.10543 6.29297 6.29297C6.10543 6.4805 6 6.73478 6 7V17C6 17.2652 6.10543 17.5195 6.29297 17.707C6.48051 17.8946 6.73478 18 7 18H17C17.2652 18 17.5195 17.8946 17.707 17.707C17.8946 17.5195 18 17.2652 18 17V11C18 10.4477 18.4477 10 19 10C19.5523 10 20 10.4477 20 11V17C20 17.7957 19.6837 18.5585 19.1211 19.1211C18.5585 19.6837 17.7957 20 17 20H7C6.20435 20 5.44152 19.6837 4.87891 19.1211C4.3163 18.5585 4 17.7956 4 17ZM22 8C22 8.55228 21.5523 9 21 9C20.4477 9 20 8.55228 20 8V5.41406L12.707 12.707C12.3165 13.0976 11.6835 13.0976 11.293 12.707C10.9024 12.3165 10.9024 11.6835 11.293 11.293L18.5859 4H16C15.4477 4 15 3.55228 15 3C15 2.44772 15.4477 2 16 2H21C21.5523 2 22 2.44772 22 3V8Z" fill="white"/>
</svg>
