<svg width="40" height="40" viewBox="0 0 40 40" fill="none" xmlns="http://www.w3.org/2000/svg">
<path d="M21.6667 11.6668V5.00016C21.6667 4.07969 22.4129 3.3335 23.3334 3.3335C24.2539 3.3335 25.0001 4.07969 25.0001 5.00016V11.6668H31.6667C32.5872 11.6668 33.3334 12.413 33.3334 13.3335C33.3334 14.254 32.5872 15.0002 31.6667 15.0002H25.0001C24.116 15.0002 23.2684 14.6487 22.6433 14.0236C22.0182 13.3985 21.6667 12.5509 21.6667 11.6668Z" fill="white"/>
<path d="M6.66675 31.6668V8.3335C6.66675 7.00741 7.19391 5.73602 8.13159 4.79834C9.06927 3.86066 10.3407 3.3335 11.6667 3.3335H23.3334C23.7754 3.3335 24.1992 3.50922 24.5118 3.82178L32.8451 12.1551C33.1577 12.4677 33.3334 12.8915 33.3334 13.3335V31.6668C33.3334 32.9929 32.8063 34.2643 31.8686 35.202C30.9309 36.1397 29.6595 36.6668 28.3334 36.6668H11.6667C10.3407 36.6668 9.06927 36.1397 8.13159 35.202C7.19391 34.2643 6.66675 32.9929 6.66675 31.6668ZM10.0001 31.6668C10.0001 32.1089 10.1758 32.5327 10.4884 32.8452C10.8009 33.1578 11.2247 33.3335 11.6667 33.3335H28.3334C28.7754 33.3335 29.1992 33.1578 29.5118 32.8452C29.8244 32.5327 30.0001 32.1089 30.0001 31.6668V14.0236L22.6433 6.66683H11.6667C11.2247 6.66683 10.8009 6.84255 10.4884 7.15511C10.1758 7.46767 10.0001 7.89147 10.0001 8.3335V31.6668Z" fill="white"/>
<path d="M21.2631 16.7173C22.156 16.4943 23.0597 17.037 23.283 17.9298L24.1667 21.465L25.0505 17.9298C25.2738 17.037 26.1775 16.4943 27.0704 16.7173C27.9633 16.9405 28.506 17.8443 28.283 18.7371L25.783 28.7371C25.5975 29.4791 24.9315 30.0002 24.1667 30.0002C23.402 30.0002 22.736 29.4791 22.5505 28.7371L20.0505 18.7371C19.8275 17.8443 20.3702 16.9405 21.2631 16.7173ZM16.6667 20.8335C16.6667 20.6125 16.5789 20.4006 16.4226 20.2443C16.2663 20.088 16.0544 20.0002 15.8334 20.0002C15.6124 20.0002 15.4005 20.088 15.2442 20.2443C15.0879 20.4006 15.0001 20.6125 15.0001 20.8335V25.8335C15.0001 26.0545 15.0879 26.2664 15.2442 26.4227C15.4005 26.579 15.6124 26.6668 15.8334 26.6668C16.0544 26.6668 16.2663 26.579 16.4226 26.4227C16.5789 26.2664 16.6667 26.0545 16.6667 25.8335C16.6667 24.913 17.4129 24.1668 18.3334 24.1668C19.2539 24.1668 20.0001 24.913 20.0001 25.8335C20.0001 26.9386 19.5608 27.9981 18.7794 28.7795C17.998 29.5609 16.9385 30.0002 15.8334 30.0002C14.7283 30.0002 13.6689 29.5609 12.8875 28.7795C12.106 27.9981 11.6667 26.9386 11.6667 25.8335V20.8335C11.6667 19.7284 12.106 18.6689 12.8875 17.8875C13.6689 17.1061 14.7283 16.6668 15.8334 16.6668C16.9385 16.6668 17.998 17.1061 18.7794 17.8875C19.5608 18.6689 20.0001 19.7284 20.0001 20.8335C20.0001 21.754 19.2539 22.5002 18.3334 22.5002C17.4129 22.5002 16.6667 21.754 16.6667 20.8335Z" fill="white"/>
</svg>
