<svg width="24" height="24" viewBox="0 0 24 24" fill="none" xmlns="http://www.w3.org/2000/svg">
<path d="M14.0001 20.9997V17.4997C14.0001 17.3671 14.0014 17.2453 14.003 17.1374C14.0046 17.0268 14.0059 16.9351 14.0059 16.8503C14.0059 16.6776 13.9995 16.5811 13.9883 16.5144C13.9793 16.4602 13.9681 16.4314 13.9532 16.404C13.9352 16.371 13.8941 16.3089 13.793 16.2077C13.5208 15.9355 13.4288 15.5307 13.5567 15.1677C13.6849 14.8045 14.0107 14.5466 14.3936 14.5056C15.7269 14.3627 16.8532 14.0431 17.6456 13.3571C18.3951 12.7082 19 11.5937 19.0001 9.5007C18.999 8.56563 18.6339 7.66762 17.9825 6.9968C17.7128 6.71902 17.6274 6.31033 17.7637 5.94797C17.9822 5.36721 18.0251 4.74059 17.8956 4.14328C17.4567 4.249 16.7169 4.52377 15.6544 5.23215C15.4171 5.3902 15.1236 5.43973 14.8477 5.36789C12.9804 4.88162 11.0197 4.88162 9.15241 5.36789C8.87655 5.43973 8.583 5.39019 8.34577 5.23215C7.28245 4.52327 6.54235 4.24884 6.10358 4.14328C5.97409 4.74053 6.01796 5.36728 6.2364 5.94797C6.3727 6.31033 6.28732 6.71902 6.01765 6.9968C5.3662 7.66762 5.00115 8.56563 5.00007 9.5007C5.00017 11.5937 5.60509 12.7082 6.35456 13.3571C7.14695 14.0431 8.27319 14.3627 9.60651 14.5056C9.98944 14.5466 10.3152 14.8045 10.4434 15.1677C10.5714 15.5307 10.4793 15.9355 10.2071 16.2077C10.0407 16.3742 9.99243 16.4963 9.9698 16.614C9.93939 16.7721 9.94359 16.9862 9.99226 17.3757C9.99738 17.4167 10.0001 17.4584 10.0001 17.4997V20.9997C10.0001 21.552 9.55235 21.9997 9.00007 21.9997C8.44778 21.9997 8.00007 21.552 8.00007 20.9997V20.2556C7.34568 20.3408 6.75507 20.3053 6.21784 20.155C5.33744 19.9086 4.72455 19.3909 4.27058 18.8689C3.87087 18.4092 3.46513 17.7675 3.24616 17.4714C2.95642 17.0797 2.80503 16.9853 2.71784 16.9597C2.18812 16.8039 1.88548 16.2482 2.04108 15.7185C2.19692 15.1886 2.75245 14.8849 3.2823 15.0407C4.04491 15.2651 4.53083 15.8456 4.85358 16.282C5.24705 16.8139 5.42923 17.1537 5.77937 17.5564C6.0753 17.8967 6.3751 18.1224 6.75691 18.2292C7.04103 18.3087 7.43679 18.3386 8.00007 18.2292V17.5525C7.9539 17.1672 7.91872 16.7215 8.00007 16.2693C6.95568 16.0334 5.91364 15.62 5.04597 14.8689C3.74551 13.7429 3.00007 12.0064 3.00007 9.49973C3.00143 8.24952 3.42147 7.04144 4.18269 6.06418C3.90657 4.94261 4.01019 3.7544 4.48835 2.69016L4.53913 2.59152C4.6707 2.36881 4.88446 2.20433 5.13679 2.13547L5.40046 3.10031C5.13734 2.13555 5.13783 2.13474 5.13874 2.13449H5.14069L5.15241 2.13156C5.15772 2.1302 5.16314 2.12809 5.16901 2.12668C5.18087 2.12383 5.19394 2.12085 5.20808 2.11789C5.23653 2.11194 5.27007 2.10678 5.30769 2.10129C5.38293 2.0903 5.47594 2.08131 5.58698 2.07883C5.80997 2.07387 6.10194 2.09409 6.46296 2.17258C7.11227 2.31378 7.97802 2.6412 9.07917 3.32785C11.002 2.89498 12.9971 2.89512 14.92 3.32785C16.0215 2.6409 16.8877 2.31381 17.5372 2.17258C17.8982 2.09409 18.1902 2.07387 18.4132 2.07883C18.5242 2.08131 18.6172 2.0903 18.6925 2.10129C18.7301 2.10678 18.7636 2.11194 18.7921 2.11789C18.8062 2.12085 18.8193 2.12383 18.8311 2.12668C18.837 2.12809 18.8424 2.1302 18.8477 2.13156L18.8594 2.13449H18.8614C18.8622 2.13472 18.8625 2.13522 18.6466 2.92746L18.8633 2.13547C19.1516 2.21413 19.3892 2.41767 19.5118 2.69016C19.99 3.75447 20.0927 4.94254 19.8165 6.06418C20.5779 7.04152 20.9987 8.24834 21.0001 9.49875C21.0001 12.0055 20.2546 13.7429 18.9542 14.8689C18.0789 15.6265 17.0262 16.0403 15.9727 16.2751C16.0236 16.6677 16.0001 17.1379 16.0001 17.4997V20.9997C16.0001 21.552 15.5524 21.9997 15.0001 21.9997C14.4478 21.9997 14.0001 21.552 14.0001 20.9997Z" fill="white"/>
</svg>
