<svg width="40" height="40" viewBox="0 0 40 40" fill="none" xmlns="http://www.w3.org/2000/svg">
<path d="M34.3962 5.11392C34.9769 4.88811 35.6346 5.00471 36.1019 5.41665C36.5692 5.82851 36.7672 6.46605 36.6163 7.0703L29.9496 33.737C29.804 34.3195 29.3564 34.7795 28.7777 34.9398C28.1992 35.0998 27.5794 34.9361 27.155 34.5117L20.1791 27.5358L16.3331 32.666C15.9611 33.1619 15.345 33.4114 14.7331 33.3122C14.1214 33.2129 13.6158 32.7818 13.4197 32.194L10.3044 22.8483L4.25461 19.8242C3.66522 19.5295 3.30477 18.915 3.33502 18.2568C3.36558 17.5983 3.78181 17.0195 4.39622 16.7806L34.3962 5.11392ZM9.1065 18.5221L12.4122 20.1758L12.5554 20.2571C12.8796 20.4616 13.1247 20.7725 13.2471 21.1393L15.5746 28.1217L17.7995 25.1562L17.155 24.5117C16.5041 23.8608 16.5041 22.8058 17.155 22.1549L23.8217 15.4883C24.4725 14.8374 25.5276 14.8374 26.1784 15.4883C26.8293 16.1391 26.8293 17.1942 26.1784 17.845L20.6902 23.3333L27.4301 30.0732L32.6026 9.38638L9.1065 18.5221Z" fill="white"/>
</svg>
